<mxfile host="app.diagrams.net" modified="2023-05-01T20:06:29.699Z" agent="Mozilla/5.0 (Windows NT 10.0; Win64; x64) AppleWebKit/537.36 (KHTML, like Gecko) Chrome/112.0.0.0 Safari/537.36" etag="eyPpX7DGPetdDfajPfFC" version="21.2.3" type="device">
  <diagram name="Page-1" id="toVDyONYBb_MuGp7T_vL">
    <mxGraphModel dx="3420" dy="1923" grid="1" gridSize="10" guides="1" tooltips="1" connect="1" arrows="1" fold="1" page="1" pageScale="1" pageWidth="850" pageHeight="1100" math="0" shadow="0">
      <root>
        <mxCell id="0" />
        <mxCell id="1" parent="0" />
        <mxCell id="31Z0OuM0FsBCKLEpLBbi-3" style="edgeStyle=orthogonalEdgeStyle;rounded=0;orthogonalLoop=1;jettySize=auto;html=1;exitX=0.5;exitY=1;exitDx=0;exitDy=0;entryX=0.5;entryY=0;entryDx=0;entryDy=0;" edge="1" parent="1" source="31Z0OuM0FsBCKLEpLBbi-1" target="31Z0OuM0FsBCKLEpLBbi-2">
          <mxGeometry relative="1" as="geometry" />
        </mxCell>
        <mxCell id="31Z0OuM0FsBCKLEpLBbi-1" value="&lt;font style=&quot;font-size: 21px;&quot;&gt;select type of user&lt;/font&gt;" style="rounded=0;whiteSpace=wrap;html=1;fillColor=#dae8fc;strokeColor=#6c8ebf;" vertex="1" parent="1">
          <mxGeometry x="360" y="-50" width="120" height="60" as="geometry" />
        </mxCell>
        <mxCell id="31Z0OuM0FsBCKLEpLBbi-2" value="&lt;font style=&quot;font-size: 23px;&quot;&gt;Login&lt;/font&gt;" style="rounded=0;whiteSpace=wrap;html=1;fillColor=#dae8fc;strokeColor=#6c8ebf;" vertex="1" parent="1">
          <mxGeometry x="360" y="100" width="120" height="60" as="geometry" />
        </mxCell>
        <mxCell id="31Z0OuM0FsBCKLEpLBbi-6" value="" style="endArrow=classic;html=1;rounded=0;exitX=0;exitY=1;exitDx=0;exitDy=0;entryX=0.5;entryY=0;entryDx=0;entryDy=0;" edge="1" parent="1" source="31Z0OuM0FsBCKLEpLBbi-2" target="31Z0OuM0FsBCKLEpLBbi-7">
          <mxGeometry width="50" height="50" relative="1" as="geometry">
            <mxPoint x="400" y="320" as="sourcePoint" />
            <mxPoint x="120" y="240" as="targetPoint" />
          </mxGeometry>
        </mxCell>
        <mxCell id="31Z0OuM0FsBCKLEpLBbi-7" value="&lt;font style=&quot;font-size: 18px;&quot;&gt;Customer&lt;/font&gt;" style="rounded=0;whiteSpace=wrap;html=1;fillColor=#dae8fc;strokeColor=#6c8ebf;" vertex="1" parent="1">
          <mxGeometry x="50" y="260" width="120" height="60" as="geometry" />
        </mxCell>
        <mxCell id="31Z0OuM0FsBCKLEpLBbi-13" value="" style="edgeStyle=orthogonalEdgeStyle;rounded=0;orthogonalLoop=1;jettySize=auto;html=1;" edge="1" parent="1" source="31Z0OuM0FsBCKLEpLBbi-8" target="31Z0OuM0FsBCKLEpLBbi-9">
          <mxGeometry relative="1" as="geometry" />
        </mxCell>
        <mxCell id="31Z0OuM0FsBCKLEpLBbi-8" value="&lt;font style=&quot;font-size: 18px;&quot;&gt;Subsystem&lt;br&gt;select buy&lt;br&gt;&lt;/font&gt;" style="rounded=0;whiteSpace=wrap;html=1;fillColor=#fff2cc;strokeColor=#d6b656;" vertex="1" parent="1">
          <mxGeometry x="143" y="380" width="120" height="60" as="geometry" />
        </mxCell>
        <mxCell id="31Z0OuM0FsBCKLEpLBbi-14" value="" style="edgeStyle=orthogonalEdgeStyle;rounded=0;orthogonalLoop=1;jettySize=auto;html=1;" edge="1" parent="1" source="31Z0OuM0FsBCKLEpLBbi-9" target="31Z0OuM0FsBCKLEpLBbi-10">
          <mxGeometry relative="1" as="geometry" />
        </mxCell>
        <mxCell id="31Z0OuM0FsBCKLEpLBbi-9" value="&lt;font style=&quot;font-size: 18px;&quot;&gt;vehicle condition&lt;/font&gt;" style="rounded=0;whiteSpace=wrap;html=1;fillColor=#fff2cc;strokeColor=#d6b656;" vertex="1" parent="1">
          <mxGeometry x="143" y="490" width="120" height="60" as="geometry" />
        </mxCell>
        <mxCell id="31Z0OuM0FsBCKLEpLBbi-15" value="" style="edgeStyle=orthogonalEdgeStyle;rounded=0;orthogonalLoop=1;jettySize=auto;html=1;" edge="1" parent="1" source="31Z0OuM0FsBCKLEpLBbi-10" target="31Z0OuM0FsBCKLEpLBbi-11">
          <mxGeometry relative="1" as="geometry" />
        </mxCell>
        <mxCell id="31Z0OuM0FsBCKLEpLBbi-10" value="&lt;font style=&quot;font-size: 18px;&quot;&gt;select a vehicle&lt;/font&gt;" style="rounded=0;whiteSpace=wrap;html=1;fillColor=#fff2cc;strokeColor=#d6b656;" vertex="1" parent="1">
          <mxGeometry x="143" y="580" width="120" height="60" as="geometry" />
        </mxCell>
        <mxCell id="31Z0OuM0FsBCKLEpLBbi-11" value="&lt;font style=&quot;font-size: 18px;&quot;&gt;confirm buy&lt;/font&gt;" style="rounded=0;whiteSpace=wrap;html=1;fillColor=#fff2cc;strokeColor=#d6b656;" vertex="1" parent="1">
          <mxGeometry x="143" y="680" width="120" height="60" as="geometry" />
        </mxCell>
        <mxCell id="31Z0OuM0FsBCKLEpLBbi-20" value="" style="edgeStyle=orthogonalEdgeStyle;rounded=0;orthogonalLoop=1;jettySize=auto;html=1;" edge="1" parent="1" source="31Z0OuM0FsBCKLEpLBbi-16" target="31Z0OuM0FsBCKLEpLBbi-18">
          <mxGeometry relative="1" as="geometry" />
        </mxCell>
        <mxCell id="31Z0OuM0FsBCKLEpLBbi-16" value="&lt;font style=&quot;font-size: 18px;&quot;&gt;Subsystem&lt;br&gt;select sell&lt;br&gt;&lt;/font&gt;" style="rounded=0;whiteSpace=wrap;html=1;fillColor=#ffe6cc;strokeColor=#d79b00;" vertex="1" parent="1">
          <mxGeometry x="6" y="380" width="120" height="60" as="geometry" />
        </mxCell>
        <mxCell id="31Z0OuM0FsBCKLEpLBbi-17" value="" style="endArrow=classic;html=1;rounded=0;entryX=0.75;entryY=0;entryDx=0;entryDy=0;exitX=0.5;exitY=1;exitDx=0;exitDy=0;" edge="1" parent="1" source="31Z0OuM0FsBCKLEpLBbi-7" target="31Z0OuM0FsBCKLEpLBbi-16">
          <mxGeometry width="50" height="50" relative="1" as="geometry">
            <mxPoint x="80" y="320" as="sourcePoint" />
            <mxPoint x="450" y="370" as="targetPoint" />
          </mxGeometry>
        </mxCell>
        <mxCell id="31Z0OuM0FsBCKLEpLBbi-21" value="" style="edgeStyle=orthogonalEdgeStyle;rounded=0;orthogonalLoop=1;jettySize=auto;html=1;" edge="1" parent="1" source="31Z0OuM0FsBCKLEpLBbi-18" target="31Z0OuM0FsBCKLEpLBbi-19">
          <mxGeometry relative="1" as="geometry" />
        </mxCell>
        <mxCell id="31Z0OuM0FsBCKLEpLBbi-18" value="&lt;font style=&quot;font-size: 18px;&quot;&gt;fill all vehicle info&lt;/font&gt;" style="rounded=0;whiteSpace=wrap;html=1;fillColor=#ffe6cc;strokeColor=#d79b00;" vertex="1" parent="1">
          <mxGeometry x="6" y="490" width="120" height="60" as="geometry" />
        </mxCell>
        <mxCell id="31Z0OuM0FsBCKLEpLBbi-19" value="&lt;font style=&quot;font-size: 18px;&quot;&gt;confirm selling&lt;/font&gt;" style="rounded=0;whiteSpace=wrap;html=1;fillColor=#ffe6cc;strokeColor=#d79b00;" vertex="1" parent="1">
          <mxGeometry x="6" y="580" width="120" height="60" as="geometry" />
        </mxCell>
        <mxCell id="31Z0OuM0FsBCKLEpLBbi-27" value="" style="edgeStyle=orthogonalEdgeStyle;rounded=0;orthogonalLoop=1;jettySize=auto;html=1;" edge="1" parent="1" source="31Z0OuM0FsBCKLEpLBbi-22" target="31Z0OuM0FsBCKLEpLBbi-24">
          <mxGeometry relative="1" as="geometry" />
        </mxCell>
        <mxCell id="31Z0OuM0FsBCKLEpLBbi-22" value="&lt;font style=&quot;font-size: 18px;&quot;&gt;Subsystem&lt;br&gt;select rent&lt;br&gt;&lt;/font&gt;" style="rounded=0;whiteSpace=wrap;html=1;fillColor=#d5e8d4;strokeColor=#82b366;" vertex="1" parent="1">
          <mxGeometry x="-142" y="380" width="120" height="60" as="geometry" />
        </mxCell>
        <mxCell id="31Z0OuM0FsBCKLEpLBbi-23" value="" style="endArrow=classic;html=1;rounded=0;exitX=0.25;exitY=1;exitDx=0;exitDy=0;entryX=0.5;entryY=0;entryDx=0;entryDy=0;" edge="1" parent="1" source="31Z0OuM0FsBCKLEpLBbi-7" target="31Z0OuM0FsBCKLEpLBbi-22">
          <mxGeometry width="50" height="50" relative="1" as="geometry">
            <mxPoint x="50" y="420" as="sourcePoint" />
            <mxPoint x="100" y="370" as="targetPoint" />
          </mxGeometry>
        </mxCell>
        <mxCell id="31Z0OuM0FsBCKLEpLBbi-28" value="" style="edgeStyle=orthogonalEdgeStyle;rounded=0;orthogonalLoop=1;jettySize=auto;html=1;" edge="1" parent="1" source="31Z0OuM0FsBCKLEpLBbi-24" target="31Z0OuM0FsBCKLEpLBbi-25">
          <mxGeometry relative="1" as="geometry" />
        </mxCell>
        <mxCell id="31Z0OuM0FsBCKLEpLBbi-24" value="&lt;font style=&quot;font-size: 18px;&quot;&gt;select vehicle type&lt;/font&gt;" style="rounded=0;whiteSpace=wrap;html=1;fillColor=#d5e8d4;strokeColor=#82b366;" vertex="1" parent="1">
          <mxGeometry x="-142" y="489" width="120" height="60" as="geometry" />
        </mxCell>
        <mxCell id="31Z0OuM0FsBCKLEpLBbi-29" value="" style="edgeStyle=orthogonalEdgeStyle;rounded=0;orthogonalLoop=1;jettySize=auto;html=1;" edge="1" parent="1" source="31Z0OuM0FsBCKLEpLBbi-25" target="31Z0OuM0FsBCKLEpLBbi-26">
          <mxGeometry relative="1" as="geometry" />
        </mxCell>
        <mxCell id="31Z0OuM0FsBCKLEpLBbi-25" value="&lt;font style=&quot;font-size: 18px;&quot;&gt;select brand logo&lt;/font&gt;" style="rounded=0;whiteSpace=wrap;html=1;fillColor=#d5e8d4;strokeColor=#82b366;" vertex="1" parent="1">
          <mxGeometry x="-142" y="580" width="120" height="60" as="geometry" />
        </mxCell>
        <mxCell id="31Z0OuM0FsBCKLEpLBbi-26" value="&lt;font style=&quot;font-size: 18px;&quot;&gt;Enter start &amp;amp; end date&lt;/font&gt;" style="rounded=0;whiteSpace=wrap;html=1;fillColor=#d5e8d4;strokeColor=#82b366;" vertex="1" parent="1">
          <mxGeometry x="-142" y="680" width="120" height="60" as="geometry" />
        </mxCell>
        <mxCell id="31Z0OuM0FsBCKLEpLBbi-30" value="&lt;font style=&quot;font-size: 18px;&quot;&gt;Subsystem&lt;br&gt;select maintenance&lt;br&gt;&lt;/font&gt;" style="rounded=0;whiteSpace=wrap;html=1;fillColor=#d0cee2;strokeColor=#56517e;" vertex="1" parent="1">
          <mxGeometry x="-281" y="380" width="120" height="60" as="geometry" />
        </mxCell>
        <mxCell id="31Z0OuM0FsBCKLEpLBbi-31" value="" style="endArrow=classic;html=1;rounded=0;exitX=0;exitY=1;exitDx=0;exitDy=0;entryX=0.5;entryY=0;entryDx=0;entryDy=0;" edge="1" parent="1" source="31Z0OuM0FsBCKLEpLBbi-7" target="31Z0OuM0FsBCKLEpLBbi-30">
          <mxGeometry width="50" height="50" relative="1" as="geometry">
            <mxPoint x="50" y="490" as="sourcePoint" />
            <mxPoint x="100" y="440" as="targetPoint" />
          </mxGeometry>
        </mxCell>
        <mxCell id="31Z0OuM0FsBCKLEpLBbi-63" value="" style="edgeStyle=orthogonalEdgeStyle;rounded=0;orthogonalLoop=1;jettySize=auto;html=1;" edge="1" parent="1" source="31Z0OuM0FsBCKLEpLBbi-32" target="31Z0OuM0FsBCKLEpLBbi-33">
          <mxGeometry relative="1" as="geometry" />
        </mxCell>
        <mxCell id="31Z0OuM0FsBCKLEpLBbi-32" value="&lt;font style=&quot;font-size: 18px;&quot;&gt;Enable location&lt;/font&gt;" style="rounded=0;whiteSpace=wrap;html=1;fillColor=#d0cee2;strokeColor=#56517e;" vertex="1" parent="1">
          <mxGeometry x="-610" y="499" width="120" height="60" as="geometry" />
        </mxCell>
        <mxCell id="31Z0OuM0FsBCKLEpLBbi-33" value="&lt;font style=&quot;font-size: 18px;&quot;&gt;select any nearest place&lt;/font&gt;" style="rounded=0;whiteSpace=wrap;html=1;fillColor=#d0cee2;strokeColor=#56517e;" vertex="1" parent="1">
          <mxGeometry x="-610" y="630" width="120" height="90" as="geometry" />
        </mxCell>
        <mxCell id="31Z0OuM0FsBCKLEpLBbi-39" value="" style="edgeStyle=orthogonalEdgeStyle;rounded=0;orthogonalLoop=1;jettySize=auto;html=1;" edge="1" parent="1" source="31Z0OuM0FsBCKLEpLBbi-36" target="31Z0OuM0FsBCKLEpLBbi-37">
          <mxGeometry relative="1" as="geometry" />
        </mxCell>
        <mxCell id="31Z0OuM0FsBCKLEpLBbi-36" value="&lt;font style=&quot;font-size: 18px;&quot;&gt;Subsystem&lt;br&gt;select car finance&lt;br&gt;&lt;/font&gt;" style="rounded=0;whiteSpace=wrap;html=1;fillColor=#f8cecc;strokeColor=#b85450;" vertex="1" parent="1">
          <mxGeometry x="562" y="379" width="120" height="60" as="geometry" />
        </mxCell>
        <mxCell id="31Z0OuM0FsBCKLEpLBbi-40" value="" style="edgeStyle=orthogonalEdgeStyle;rounded=0;orthogonalLoop=1;jettySize=auto;html=1;" edge="1" parent="1" source="31Z0OuM0FsBCKLEpLBbi-37" target="31Z0OuM0FsBCKLEpLBbi-38">
          <mxGeometry relative="1" as="geometry" />
        </mxCell>
        <mxCell id="31Z0OuM0FsBCKLEpLBbi-37" value="&lt;font style=&quot;font-size: 18px;&quot;&gt;Enter price&lt;/font&gt;" style="rounded=0;whiteSpace=wrap;html=1;fillColor=#f8cecc;strokeColor=#b85450;" vertex="1" parent="1">
          <mxGeometry x="562" y="488" width="120" height="60" as="geometry" />
        </mxCell>
        <mxCell id="31Z0OuM0FsBCKLEpLBbi-38" value="&lt;font style=&quot;font-size: 18px;&quot;&gt;Enter installment&lt;br&gt;per months&lt;br&gt;&lt;/font&gt;" style="rounded=0;whiteSpace=wrap;html=1;fillColor=#f8cecc;strokeColor=#b85450;" vertex="1" parent="1">
          <mxGeometry x="562" y="579" width="120" height="60" as="geometry" />
        </mxCell>
        <mxCell id="31Z0OuM0FsBCKLEpLBbi-44" value="" style="edgeStyle=orthogonalEdgeStyle;rounded=0;orthogonalLoop=1;jettySize=auto;html=1;" edge="1" parent="1" source="31Z0OuM0FsBCKLEpLBbi-41" target="31Z0OuM0FsBCKLEpLBbi-42">
          <mxGeometry relative="1" as="geometry">
            <Array as="points">
              <mxPoint x="347" y="460" />
              <mxPoint x="347" y="460" />
            </Array>
          </mxGeometry>
        </mxCell>
        <mxCell id="31Z0OuM0FsBCKLEpLBbi-41" value="&lt;font style=&quot;font-size: 18px;&quot;&gt;Subsystem&lt;br&gt;select news&lt;br&gt;&lt;/font&gt;" style="rounded=0;whiteSpace=wrap;html=1;fillColor=#e1d5e7;strokeColor=#9673a6;" vertex="1" parent="1">
          <mxGeometry x="277" y="380" width="120" height="60" as="geometry" />
        </mxCell>
        <mxCell id="31Z0OuM0FsBCKLEpLBbi-47" value="" style="edgeStyle=orthogonalEdgeStyle;rounded=0;orthogonalLoop=1;jettySize=auto;html=1;" edge="1" parent="1" source="31Z0OuM0FsBCKLEpLBbi-42" target="31Z0OuM0FsBCKLEpLBbi-46">
          <mxGeometry relative="1" as="geometry" />
        </mxCell>
        <mxCell id="31Z0OuM0FsBCKLEpLBbi-42" value="&lt;font style=&quot;font-size: 18px;&quot;&gt;select a filter &lt;br&gt;option&lt;/font&gt;" style="rounded=0;whiteSpace=wrap;html=1;fillColor=#e1d5e7;strokeColor=#9673a6;" vertex="1" parent="1">
          <mxGeometry x="287" y="490" width="120" height="60" as="geometry" />
        </mxCell>
        <mxCell id="31Z0OuM0FsBCKLEpLBbi-43" value="&lt;font style=&quot;font-size: 18px;&quot;&gt;Enable notification&lt;/font&gt;" style="rounded=0;whiteSpace=wrap;html=1;fillColor=#e1d5e7;strokeColor=#9673a6;" vertex="1" parent="1">
          <mxGeometry x="427" y="489" width="120" height="60" as="geometry" />
        </mxCell>
        <mxCell id="31Z0OuM0FsBCKLEpLBbi-45" value="" style="endArrow=classic;html=1;rounded=0;entryX=0.5;entryY=0;entryDx=0;entryDy=0;exitX=0.75;exitY=1;exitDx=0;exitDy=0;" edge="1" parent="1" source="31Z0OuM0FsBCKLEpLBbi-41" target="31Z0OuM0FsBCKLEpLBbi-43">
          <mxGeometry width="50" height="50" relative="1" as="geometry">
            <mxPoint x="97" y="490" as="sourcePoint" />
            <mxPoint x="147" y="440" as="targetPoint" />
          </mxGeometry>
        </mxCell>
        <mxCell id="31Z0OuM0FsBCKLEpLBbi-46" value="&lt;font style=&quot;font-size: 18px;&quot;&gt;select a brand&lt;br&gt;&lt;/font&gt;" style="rounded=0;whiteSpace=wrap;html=1;fillColor=#e1d5e7;strokeColor=#9673a6;" vertex="1" parent="1">
          <mxGeometry x="287" y="580" width="120" height="60" as="geometry" />
        </mxCell>
        <mxCell id="31Z0OuM0FsBCKLEpLBbi-48" value="&lt;font style=&quot;font-size: 18px;&quot;&gt;Subsystem&lt;br&gt;select emergency alerts&lt;br&gt;&lt;/font&gt;" style="rounded=0;whiteSpace=wrap;html=1;fillColor=#d0cee2;strokeColor=#56517e;" vertex="1" parent="1">
          <mxGeometry x="-461" y="380" width="160" height="60" as="geometry" />
        </mxCell>
        <mxCell id="31Z0OuM0FsBCKLEpLBbi-49" value="" style="endArrow=classic;html=1;rounded=0;exitX=1;exitY=1;exitDx=0;exitDy=0;entryX=0.5;entryY=0;entryDx=0;entryDy=0;" edge="1" parent="1" source="31Z0OuM0FsBCKLEpLBbi-7" target="31Z0OuM0FsBCKLEpLBbi-41">
          <mxGeometry width="50" height="50" relative="1" as="geometry">
            <mxPoint x="-30" y="550" as="sourcePoint" />
            <mxPoint x="20" y="500" as="targetPoint" />
          </mxGeometry>
        </mxCell>
        <mxCell id="31Z0OuM0FsBCKLEpLBbi-50" value="" style="endArrow=classic;html=1;rounded=0;exitX=0;exitY=0.5;exitDx=0;exitDy=0;entryX=0.5;entryY=0;entryDx=0;entryDy=0;" edge="1" parent="1" source="31Z0OuM0FsBCKLEpLBbi-7" target="31Z0OuM0FsBCKLEpLBbi-48">
          <mxGeometry width="50" height="50" relative="1" as="geometry">
            <mxPoint x="-320" y="550" as="sourcePoint" />
            <mxPoint x="-270" y="500" as="targetPoint" />
          </mxGeometry>
        </mxCell>
        <mxCell id="31Z0OuM0FsBCKLEpLBbi-51" value="&lt;font style=&quot;font-size: 18px;&quot;&gt;Subsystem&lt;br&gt;select showroom list&lt;br&gt;&lt;/font&gt;" style="rounded=0;whiteSpace=wrap;html=1;fillColor=#d0cee2;strokeColor=#56517e;" vertex="1" parent="1">
          <mxGeometry x="-611" y="380" width="120" height="60" as="geometry" />
        </mxCell>
        <mxCell id="31Z0OuM0FsBCKLEpLBbi-52" value="&lt;font style=&quot;font-size: 18px;&quot;&gt;Subsystem&lt;br&gt;select car side assistance&lt;br&gt;&lt;/font&gt;" style="rounded=0;whiteSpace=wrap;html=1;fillColor=#d0cee2;strokeColor=#56517e;" vertex="1" parent="1">
          <mxGeometry x="-761" y="380" width="120" height="60" as="geometry" />
        </mxCell>
        <mxCell id="31Z0OuM0FsBCKLEpLBbi-53" value="&lt;font style=&quot;font-size: 18px;&quot;&gt;Subsystem&lt;br&gt;select petrol or gas station&lt;br&gt;&lt;/font&gt;" style="rounded=0;whiteSpace=wrap;html=1;fillColor=#d0cee2;strokeColor=#56517e;" vertex="1" parent="1">
          <mxGeometry x="-901" y="380" width="120" height="60" as="geometry" />
        </mxCell>
        <mxCell id="31Z0OuM0FsBCKLEpLBbi-54" value="" style="endArrow=classic;html=1;rounded=0;exitX=0;exitY=0.25;exitDx=0;exitDy=0;entryX=0.5;entryY=0;entryDx=0;entryDy=0;" edge="1" parent="1" source="31Z0OuM0FsBCKLEpLBbi-7" target="31Z0OuM0FsBCKLEpLBbi-51">
          <mxGeometry width="50" height="50" relative="1" as="geometry">
            <mxPoint x="-440" y="450" as="sourcePoint" />
            <mxPoint x="-390" y="400" as="targetPoint" />
          </mxGeometry>
        </mxCell>
        <mxCell id="31Z0OuM0FsBCKLEpLBbi-55" value="" style="endArrow=classic;html=1;rounded=0;exitX=0;exitY=0;exitDx=0;exitDy=0;entryX=0.5;entryY=0;entryDx=0;entryDy=0;" edge="1" parent="1" source="31Z0OuM0FsBCKLEpLBbi-7" target="31Z0OuM0FsBCKLEpLBbi-52">
          <mxGeometry width="50" height="50" relative="1" as="geometry">
            <mxPoint x="60" y="285" as="sourcePoint" />
            <mxPoint x="-640" y="390" as="targetPoint" />
          </mxGeometry>
        </mxCell>
        <mxCell id="31Z0OuM0FsBCKLEpLBbi-56" value="" style="endArrow=classic;html=1;rounded=0;exitX=1.001;exitY=0.657;exitDx=0;exitDy=0;entryX=0.5;entryY=0;entryDx=0;entryDy=0;exitPerimeter=0;" edge="1" parent="1" source="31Z0OuM0FsBCKLEpLBbi-7" target="31Z0OuM0FsBCKLEpLBbi-36">
          <mxGeometry width="50" height="50" relative="1" as="geometry">
            <mxPoint x="440" y="440" as="sourcePoint" />
            <mxPoint x="490" y="390" as="targetPoint" />
          </mxGeometry>
        </mxCell>
        <mxCell id="31Z0OuM0FsBCKLEpLBbi-57" value="" style="endArrow=classic;html=1;rounded=0;entryX=0.5;entryY=0;entryDx=0;entryDy=0;exitX=0.75;exitY=1;exitDx=0;exitDy=0;" edge="1" parent="1" source="31Z0OuM0FsBCKLEpLBbi-7" target="31Z0OuM0FsBCKLEpLBbi-8">
          <mxGeometry width="50" height="50" relative="1" as="geometry">
            <mxPoint x="-30" y="440" as="sourcePoint" />
            <mxPoint x="20" y="390" as="targetPoint" />
          </mxGeometry>
        </mxCell>
        <mxCell id="31Z0OuM0FsBCKLEpLBbi-58" value="" style="endArrow=classic;html=1;rounded=0;entryX=0;entryY=0;entryDx=0;entryDy=0;exitX=0.5;exitY=1;exitDx=0;exitDy=0;" edge="1" parent="1" source="31Z0OuM0FsBCKLEpLBbi-53" target="31Z0OuM0FsBCKLEpLBbi-32">
          <mxGeometry width="50" height="50" relative="1" as="geometry">
            <mxPoint x="-540" y="640" as="sourcePoint" />
            <mxPoint x="-490" y="590" as="targetPoint" />
          </mxGeometry>
        </mxCell>
        <mxCell id="31Z0OuM0FsBCKLEpLBbi-59" value="" style="endArrow=classic;html=1;rounded=0;exitX=0.445;exitY=1.06;exitDx=0;exitDy=0;exitPerimeter=0;entryX=0.25;entryY=0;entryDx=0;entryDy=0;" edge="1" parent="1" source="31Z0OuM0FsBCKLEpLBbi-52" target="31Z0OuM0FsBCKLEpLBbi-32">
          <mxGeometry width="50" height="50" relative="1" as="geometry">
            <mxPoint x="-540" y="640" as="sourcePoint" />
            <mxPoint x="-490" y="590" as="targetPoint" />
          </mxGeometry>
        </mxCell>
        <mxCell id="31Z0OuM0FsBCKLEpLBbi-60" value="" style="endArrow=classic;html=1;rounded=0;exitX=0.5;exitY=1;exitDx=0;exitDy=0;entryX=0.5;entryY=0;entryDx=0;entryDy=0;" edge="1" parent="1" source="31Z0OuM0FsBCKLEpLBbi-51" target="31Z0OuM0FsBCKLEpLBbi-32">
          <mxGeometry width="50" height="50" relative="1" as="geometry">
            <mxPoint x="-540" y="640" as="sourcePoint" />
            <mxPoint x="-490" y="590" as="targetPoint" />
          </mxGeometry>
        </mxCell>
        <mxCell id="31Z0OuM0FsBCKLEpLBbi-61" value="" style="endArrow=classic;html=1;rounded=0;exitX=0.5;exitY=1;exitDx=0;exitDy=0;entryX=0.75;entryY=0;entryDx=0;entryDy=0;" edge="1" parent="1" source="31Z0OuM0FsBCKLEpLBbi-48" target="31Z0OuM0FsBCKLEpLBbi-32">
          <mxGeometry width="50" height="50" relative="1" as="geometry">
            <mxPoint x="-540" y="640" as="sourcePoint" />
            <mxPoint x="-490" y="590" as="targetPoint" />
          </mxGeometry>
        </mxCell>
        <mxCell id="31Z0OuM0FsBCKLEpLBbi-62" value="" style="endArrow=classic;html=1;rounded=0;exitX=0.5;exitY=1;exitDx=0;exitDy=0;entryX=1;entryY=0;entryDx=0;entryDy=0;" edge="1" parent="1" source="31Z0OuM0FsBCKLEpLBbi-30" target="31Z0OuM0FsBCKLEpLBbi-32">
          <mxGeometry width="50" height="50" relative="1" as="geometry">
            <mxPoint x="-540" y="640" as="sourcePoint" />
            <mxPoint x="-490" y="590" as="targetPoint" />
          </mxGeometry>
        </mxCell>
        <mxCell id="31Z0OuM0FsBCKLEpLBbi-77" value="" style="edgeStyle=orthogonalEdgeStyle;rounded=0;orthogonalLoop=1;jettySize=auto;html=1;" edge="1" parent="1" source="31Z0OuM0FsBCKLEpLBbi-64" target="31Z0OuM0FsBCKLEpLBbi-75">
          <mxGeometry relative="1" as="geometry" />
        </mxCell>
        <mxCell id="31Z0OuM0FsBCKLEpLBbi-64" value="&lt;font style=&quot;font-size: 18px;&quot;&gt;Shop&lt;/font&gt;" style="rounded=0;whiteSpace=wrap;html=1;fillColor=#dae8fc;strokeColor=#6c8ebf;gradientColor=#7ea6e0;" vertex="1" parent="1">
          <mxGeometry x="720" y="265" width="120" height="55" as="geometry" />
        </mxCell>
        <mxCell id="31Z0OuM0FsBCKLEpLBbi-71" value="" style="edgeStyle=orthogonalEdgeStyle;rounded=0;orthogonalLoop=1;jettySize=auto;html=1;" edge="1" parent="1" source="31Z0OuM0FsBCKLEpLBbi-65" target="31Z0OuM0FsBCKLEpLBbi-67">
          <mxGeometry relative="1" as="geometry" />
        </mxCell>
        <mxCell id="31Z0OuM0FsBCKLEpLBbi-65" value="&lt;font style=&quot;font-size: 18px;&quot;&gt;Showroom&lt;/font&gt;" style="rounded=0;whiteSpace=wrap;html=1;fillColor=#d5e8d4;strokeColor=#82b366;gradientColor=#97d077;" vertex="1" parent="1">
          <mxGeometry x="960" y="265" width="120" height="55" as="geometry" />
        </mxCell>
        <mxCell id="31Z0OuM0FsBCKLEpLBbi-83" value="" style="edgeStyle=orthogonalEdgeStyle;rounded=0;orthogonalLoop=1;jettySize=auto;html=1;" edge="1" parent="1" source="31Z0OuM0FsBCKLEpLBbi-66" target="31Z0OuM0FsBCKLEpLBbi-80">
          <mxGeometry relative="1" as="geometry" />
        </mxCell>
        <mxCell id="31Z0OuM0FsBCKLEpLBbi-66" value="&lt;font style=&quot;font-size: 18px;&quot;&gt;Company&lt;/font&gt;" style="rounded=0;whiteSpace=wrap;html=1;fillColor=#f8cecc;strokeColor=#b85450;gradientColor=#ea6b66;" vertex="1" parent="1">
          <mxGeometry x="1160" y="265" width="120" height="55" as="geometry" />
        </mxCell>
        <mxCell id="31Z0OuM0FsBCKLEpLBbi-72" value="" style="edgeStyle=orthogonalEdgeStyle;rounded=0;orthogonalLoop=1;jettySize=auto;html=1;" edge="1" parent="1" source="31Z0OuM0FsBCKLEpLBbi-67" target="31Z0OuM0FsBCKLEpLBbi-68">
          <mxGeometry relative="1" as="geometry" />
        </mxCell>
        <mxCell id="31Z0OuM0FsBCKLEpLBbi-67" value="&lt;font style=&quot;font-size: 18px;&quot;&gt;subsystem select add showroom&lt;/font&gt;" style="rounded=0;whiteSpace=wrap;html=1;fillColor=#d5e8d4;strokeColor=#82b366;gradientColor=#97d077;" vertex="1" parent="1">
          <mxGeometry x="960" y="350" width="120" height="60" as="geometry" />
        </mxCell>
        <mxCell id="31Z0OuM0FsBCKLEpLBbi-73" value="" style="edgeStyle=orthogonalEdgeStyle;rounded=0;orthogonalLoop=1;jettySize=auto;html=1;" edge="1" parent="1" source="31Z0OuM0FsBCKLEpLBbi-68" target="31Z0OuM0FsBCKLEpLBbi-69">
          <mxGeometry relative="1" as="geometry" />
        </mxCell>
        <mxCell id="31Z0OuM0FsBCKLEpLBbi-68" value="&lt;font style=&quot;font-size: 18px;&quot;&gt;select vehicle condition&lt;/font&gt;" style="rounded=0;whiteSpace=wrap;html=1;fillColor=#d5e8d4;strokeColor=#82b366;gradientColor=#97d077;" vertex="1" parent="1">
          <mxGeometry x="960" y="440" width="120" height="55" as="geometry" />
        </mxCell>
        <mxCell id="31Z0OuM0FsBCKLEpLBbi-74" value="" style="edgeStyle=orthogonalEdgeStyle;rounded=0;orthogonalLoop=1;jettySize=auto;html=1;" edge="1" parent="1" source="31Z0OuM0FsBCKLEpLBbi-69" target="31Z0OuM0FsBCKLEpLBbi-70">
          <mxGeometry relative="1" as="geometry" />
        </mxCell>
        <mxCell id="31Z0OuM0FsBCKLEpLBbi-69" value="&lt;font style=&quot;font-size: 18px;&quot;&gt;add cars&lt;/font&gt;" style="rounded=0;whiteSpace=wrap;html=1;fillColor=#d5e8d4;strokeColor=#82b366;gradientColor=#97d077;" vertex="1" parent="1">
          <mxGeometry x="960" y="538" width="120" height="55" as="geometry" />
        </mxCell>
        <mxCell id="31Z0OuM0FsBCKLEpLBbi-86" style="edgeStyle=orthogonalEdgeStyle;rounded=0;orthogonalLoop=1;jettySize=auto;html=1;entryX=0.5;entryY=1;entryDx=0;entryDy=0;" edge="1" parent="1" source="31Z0OuM0FsBCKLEpLBbi-70" target="31Z0OuM0FsBCKLEpLBbi-82">
          <mxGeometry relative="1" as="geometry" />
        </mxCell>
        <mxCell id="31Z0OuM0FsBCKLEpLBbi-70" value="&lt;font style=&quot;font-size: 18px;&quot;&gt;select sell or rent&lt;/font&gt;" style="rounded=0;whiteSpace=wrap;html=1;fillColor=#d5e8d4;strokeColor=#82b366;gradientColor=#97d077;" vertex="1" parent="1">
          <mxGeometry x="960" y="630" width="120" height="55" as="geometry" />
        </mxCell>
        <mxCell id="31Z0OuM0FsBCKLEpLBbi-78" value="" style="edgeStyle=orthogonalEdgeStyle;rounded=0;orthogonalLoop=1;jettySize=auto;html=1;" edge="1" parent="1" source="31Z0OuM0FsBCKLEpLBbi-75" target="31Z0OuM0FsBCKLEpLBbi-76">
          <mxGeometry relative="1" as="geometry" />
        </mxCell>
        <mxCell id="31Z0OuM0FsBCKLEpLBbi-75" value="&lt;font style=&quot;font-size: 18px;&quot;&gt;subsystem select add shop&lt;/font&gt;" style="rounded=0;whiteSpace=wrap;html=1;fillColor=#dae8fc;strokeColor=#6c8ebf;gradientColor=#7ea6e0;" vertex="1" parent="1">
          <mxGeometry x="720" y="352" width="120" height="60" as="geometry" />
        </mxCell>
        <mxCell id="31Z0OuM0FsBCKLEpLBbi-79" style="edgeStyle=orthogonalEdgeStyle;rounded=0;orthogonalLoop=1;jettySize=auto;html=1;entryX=0;entryY=0.5;entryDx=0;entryDy=0;" edge="1" parent="1" source="31Z0OuM0FsBCKLEpLBbi-76" target="31Z0OuM0FsBCKLEpLBbi-70">
          <mxGeometry relative="1" as="geometry">
            <Array as="points">
              <mxPoint x="780" y="658" />
            </Array>
          </mxGeometry>
        </mxCell>
        <mxCell id="31Z0OuM0FsBCKLEpLBbi-76" value="&lt;font style=&quot;font-size: 18px;&quot;&gt;add all vehicle equipment&lt;/font&gt;" style="rounded=0;whiteSpace=wrap;html=1;fillColor=#dae8fc;strokeColor=#6c8ebf;gradientColor=#7ea6e0;" vertex="1" parent="1">
          <mxGeometry x="720" y="450" width="120" height="55" as="geometry" />
        </mxCell>
        <mxCell id="31Z0OuM0FsBCKLEpLBbi-84" value="" style="edgeStyle=orthogonalEdgeStyle;rounded=0;orthogonalLoop=1;jettySize=auto;html=1;" edge="1" parent="1" source="31Z0OuM0FsBCKLEpLBbi-80" target="31Z0OuM0FsBCKLEpLBbi-81">
          <mxGeometry relative="1" as="geometry" />
        </mxCell>
        <mxCell id="31Z0OuM0FsBCKLEpLBbi-80" value="&lt;font style=&quot;font-size: 18px;&quot;&gt;subsystem select add company&lt;/font&gt;" style="rounded=0;whiteSpace=wrap;html=1;fillColor=#f8cecc;strokeColor=#b85450;gradientColor=#ea6b66;" vertex="1" parent="1">
          <mxGeometry x="1160" y="352" width="120" height="68" as="geometry" />
        </mxCell>
        <mxCell id="31Z0OuM0FsBCKLEpLBbi-85" value="" style="edgeStyle=orthogonalEdgeStyle;rounded=0;orthogonalLoop=1;jettySize=auto;html=1;" edge="1" parent="1" source="31Z0OuM0FsBCKLEpLBbi-81" target="31Z0OuM0FsBCKLEpLBbi-82">
          <mxGeometry relative="1" as="geometry" />
        </mxCell>
        <mxCell id="31Z0OuM0FsBCKLEpLBbi-81" value="&lt;font style=&quot;font-size: 18px;&quot;&gt;add vehicle info&lt;/font&gt;" style="rounded=0;whiteSpace=wrap;html=1;fillColor=#f8cecc;strokeColor=#b85450;gradientColor=#ea6b66;" vertex="1" parent="1">
          <mxGeometry x="1160" y="444" width="120" height="55" as="geometry" />
        </mxCell>
        <mxCell id="31Z0OuM0FsBCKLEpLBbi-82" value="&lt;span style=&quot;font-size: 18px;&quot;&gt;confirm adding&lt;/span&gt;" style="rounded=0;whiteSpace=wrap;html=1;fillColor=#f8cecc;strokeColor=#b85450;gradientColor=#ea6b66;" vertex="1" parent="1">
          <mxGeometry x="1160" y="543" width="120" height="55" as="geometry" />
        </mxCell>
        <mxCell id="31Z0OuM0FsBCKLEpLBbi-89" value="" style="edgeStyle=orthogonalEdgeStyle;rounded=0;orthogonalLoop=1;jettySize=auto;html=1;" edge="1" parent="1" source="31Z0OuM0FsBCKLEpLBbi-87" target="31Z0OuM0FsBCKLEpLBbi-88">
          <mxGeometry relative="1" as="geometry" />
        </mxCell>
        <mxCell id="31Z0OuM0FsBCKLEpLBbi-87" value="&lt;font style=&quot;font-size: 18px;&quot;&gt;subsystem select edit&lt;/font&gt;" style="rounded=0;whiteSpace=wrap;html=1;fillColor=#f8cecc;strokeColor=#b85450;gradientColor=#ea6b66;" vertex="1" parent="1">
          <mxGeometry x="1300" y="352" width="120" height="68" as="geometry" />
        </mxCell>
        <mxCell id="31Z0OuM0FsBCKLEpLBbi-92" value="" style="edgeStyle=orthogonalEdgeStyle;rounded=0;orthogonalLoop=1;jettySize=auto;html=1;" edge="1" parent="1" source="31Z0OuM0FsBCKLEpLBbi-88" target="31Z0OuM0FsBCKLEpLBbi-91">
          <mxGeometry relative="1" as="geometry" />
        </mxCell>
        <mxCell id="31Z0OuM0FsBCKLEpLBbi-88" value="&lt;span style=&quot;font-size: 18px;&quot;&gt;Edit all vehicle info&lt;/span&gt;" style="rounded=0;whiteSpace=wrap;html=1;fillColor=#f8cecc;strokeColor=#b85450;gradientColor=#ea6b66;" vertex="1" parent="1">
          <mxGeometry x="1300" y="437" width="120" height="68" as="geometry" />
        </mxCell>
        <mxCell id="31Z0OuM0FsBCKLEpLBbi-90" value="" style="endArrow=classic;html=1;rounded=0;entryX=0.5;entryY=0;entryDx=0;entryDy=0;exitX=0.75;exitY=1;exitDx=0;exitDy=0;" edge="1" parent="1" source="31Z0OuM0FsBCKLEpLBbi-66" target="31Z0OuM0FsBCKLEpLBbi-87">
          <mxGeometry width="50" height="50" relative="1" as="geometry">
            <mxPoint x="1040" y="490" as="sourcePoint" />
            <mxPoint x="1090" y="440" as="targetPoint" />
          </mxGeometry>
        </mxCell>
        <mxCell id="31Z0OuM0FsBCKLEpLBbi-91" value="&lt;span style=&quot;font-size: 18px;&quot;&gt;confirm editing&lt;/span&gt;" style="rounded=0;whiteSpace=wrap;html=1;fillColor=#f8cecc;strokeColor=#b85450;gradientColor=#ea6b66;" vertex="1" parent="1">
          <mxGeometry x="1300" y="538" width="120" height="55" as="geometry" />
        </mxCell>
        <mxCell id="31Z0OuM0FsBCKLEpLBbi-93" value="" style="endArrow=classic;html=1;rounded=0;exitX=0.25;exitY=1;exitDx=0;exitDy=0;entryX=0.5;entryY=0;entryDx=0;entryDy=0;" edge="1" parent="1" source="31Z0OuM0FsBCKLEpLBbi-2" target="31Z0OuM0FsBCKLEpLBbi-64">
          <mxGeometry width="50" height="50" relative="1" as="geometry">
            <mxPoint x="610" y="410" as="sourcePoint" />
            <mxPoint x="660" y="360" as="targetPoint" />
          </mxGeometry>
        </mxCell>
        <mxCell id="31Z0OuM0FsBCKLEpLBbi-94" value="" style="endArrow=classic;html=1;rounded=0;exitX=0.75;exitY=1;exitDx=0;exitDy=0;entryX=0.5;entryY=0;entryDx=0;entryDy=0;" edge="1" parent="1" source="31Z0OuM0FsBCKLEpLBbi-2" target="31Z0OuM0FsBCKLEpLBbi-65">
          <mxGeometry width="50" height="50" relative="1" as="geometry">
            <mxPoint x="610" y="410" as="sourcePoint" />
            <mxPoint x="660" y="360" as="targetPoint" />
          </mxGeometry>
        </mxCell>
        <mxCell id="31Z0OuM0FsBCKLEpLBbi-95" value="" style="endArrow=classic;html=1;rounded=0;exitX=1;exitY=0.75;exitDx=0;exitDy=0;entryX=0.5;entryY=0;entryDx=0;entryDy=0;" edge="1" parent="1" source="31Z0OuM0FsBCKLEpLBbi-2" target="31Z0OuM0FsBCKLEpLBbi-66">
          <mxGeometry width="50" height="50" relative="1" as="geometry">
            <mxPoint x="460" y="170" as="sourcePoint" />
            <mxPoint x="1030" y="275" as="targetPoint" />
          </mxGeometry>
        </mxCell>
        <mxCell id="31Z0OuM0FsBCKLEpLBbi-96" value="" style="endArrow=classic;html=1;exitX=1;exitY=0.5;exitDx=0;exitDy=0;entryX=0.75;entryY=0;entryDx=0;entryDy=0;curved=1;" edge="1" parent="1" source="31Z0OuM0FsBCKLEpLBbi-65" target="31Z0OuM0FsBCKLEpLBbi-87">
          <mxGeometry width="50" height="50" relative="1" as="geometry">
            <mxPoint x="1010" y="400" as="sourcePoint" />
            <mxPoint x="1060" y="350" as="targetPoint" />
            <Array as="points">
              <mxPoint x="1290" y="160" />
            </Array>
          </mxGeometry>
        </mxCell>
        <mxCell id="31Z0OuM0FsBCKLEpLBbi-97" value="" style="endArrow=classic;html=1;exitX=1;exitY=0.5;exitDx=0;exitDy=0;entryX=1;entryY=0;entryDx=0;entryDy=0;curved=1;" edge="1" parent="1" source="31Z0OuM0FsBCKLEpLBbi-64" target="31Z0OuM0FsBCKLEpLBbi-87">
          <mxGeometry width="50" height="50" relative="1" as="geometry">
            <mxPoint x="1090" y="303" as="sourcePoint" />
            <mxPoint x="1400" y="362" as="targetPoint" />
            <Array as="points">
              <mxPoint x="1350" y="80" />
            </Array>
          </mxGeometry>
        </mxCell>
      </root>
    </mxGraphModel>
  </diagram>
</mxfile>
